<?xml version="1.0" encoding="utf-8" standalone="no"?>
<!DOCTYPE svg PUBLIC "-//W3C//DTD SVG 1.1//EN"
  "http://www.w3.org/Graphics/SVG/1.1/DTD/svg11.dtd">
<svg xmlns:xlink="http://www.w3.org/1999/xlink" width="477.377125pt" height="328.094125pt" viewBox="0 0 477.377125 328.094125" xmlns="http://www.w3.org/2000/svg" version="1.1">
 <metadata>
  <rdf:RDF xmlns:dc="http://purl.org/dc/elements/1.1/" xmlns:cc="http://creativecommons.org/ns#" xmlns:rdf="http://www.w3.org/1999/02/22-rdf-syntax-ns#">
   <cc:Work>
    <dc:type rdf:resource="http://purl.org/dc/dcmitype/StillImage"/>
    <dc:date>2024-10-02T14:47:18.982390</dc:date>
    <dc:format>image/svg+xml</dc:format>
    <dc:creator>
     <cc:Agent>
      <dc:title>Matplotlib v3.7.1, https://matplotlib.org/</dc:title>
     </cc:Agent>
    </dc:creator>
   </cc:Work>
  </rdf:RDF>
 </metadata>
 <defs>
  <style type="text/css">*{stroke-linejoin: round; stroke-linecap: butt}</style>
 </defs>
 <g id="figure_1">
  <g id="patch_1">
   <path d="M 0 328.094125 
L 477.377125 328.094125 
L 477.377125 0 
L 0 0 
z
" style="fill: #ffffff"/>
  </g>
  <g id="axes_1">
   <g id="patch_2">
    <path d="M 50.37625 288.322875 
L 475.46425 288.322875 
L 475.46425 8.386875 
L 50.37625 8.386875 
z
" style="fill: #ffffff"/>
   </g>
   <g id="matplotlib.axis_1">
    <g id="xtick_1">
     <g id="line2d_1">
      <path d="M 66.12025 288.322875 
L 66.12025 8.386875 
" clip-path="url(#pa3b52d41b4)" style="fill: none; stroke-dasharray: 1,3; stroke-dashoffset: 0; stroke: #000000; stroke-width: 0.5"/>
     </g>
     <g id="line2d_2">
      <defs>
       <path id="m8fe4108dd7" d="M 0 0 
L 0 -4 
" style="stroke: #000000; stroke-width: 0.5"/>
      </defs>
      <g>
       <use xlink:href="#m8fe4108dd7" x="66.12025" y="288.322875" style="stroke: #000000; stroke-width: 0.5"/>
      </g>
     </g>
     <g id="line2d_3">
      <defs>
       <path id="mbba1341e12" d="M 0 0 
L 0 4 
" style="stroke: #000000; stroke-width: 0.5"/>
      </defs>
      <g>
       <use xlink:href="#mbba1341e12" x="66.12025" y="8.386875" style="stroke: #000000; stroke-width: 0.5"/>
      </g>
     </g>
     <g id="text_1">
      <!-- 1999 -->
      <g transform="translate(49.90675 303.291625) scale(0.144 -0.144)">
       <defs>
        <path id="Roboto-Regular-31" d="M 2128 0 
L 1513 0 
L 1513 3950 
L 581 3938 
L 581 4381 
L 2128 4550 
L 2128 0 
z
" transform="scale(0.015625)"/>
        <path id="Roboto-Regular-39" d="M 1597 416 
Q 2047 416 2317 756 
Q 2588 1097 2588 1769 
L 2588 1975 
Q 2434 1753 2204 1639 
Q 1975 1525 1694 1525 
Q 1034 1525 646 1933 
Q 259 2341 259 3056 
Q 259 3741 670 4178 
Q 1081 4616 1669 4616 
Q 2381 4616 2792 4170 
Q 3203 3725 3203 2859 
L 3203 1775 
Q 3203 884 2758 409 
Q 2313 -66 1597 -66 
Q 1356 -66 1107 -20 
Q 859 25 663 119 
L 756 591 
Q 941 494 1139 455 
Q 1338 416 1597 416 
z
M 1694 2006 
Q 2034 2006 2261 2153 
Q 2488 2300 2588 2528 
L 2588 2922 
Q 2588 3519 2358 3825 
Q 2128 4131 1688 4131 
Q 1350 4131 1112 3829 
Q 875 3528 875 3056 
Q 875 2588 1095 2297 
Q 1316 2006 1694 2006 
z
" transform="scale(0.015625)"/>
       </defs>
       <use xlink:href="#Roboto-Regular-31"/>
       <use xlink:href="#Roboto-Regular-39" x="56.298828"/>
       <use xlink:href="#Roboto-Regular-39" x="112.597656"/>
       <use xlink:href="#Roboto-Regular-39" x="168.896484"/>
      </g>
     </g>
    </g>
    <g id="xtick_2">
     <g id="line2d_4">
      <path d="M 144.84025 288.322875 
L 144.84025 8.386875 
" clip-path="url(#pa3b52d41b4)" style="fill: none; stroke-dasharray: 1,3; stroke-dashoffset: 0; stroke: #000000; stroke-width: 0.5"/>
     </g>
     <g id="line2d_5">
      <g>
       <use xlink:href="#m8fe4108dd7" x="144.84025" y="288.322875" style="stroke: #000000; stroke-width: 0.5"/>
      </g>
     </g>
     <g id="line2d_6">
      <g>
       <use xlink:href="#mbba1341e12" x="144.84025" y="8.386875" style="stroke: #000000; stroke-width: 0.5"/>
      </g>
     </g>
     <g id="text_2">
      <!-- 2004 -->
      <g transform="translate(128.62 303.291625) scale(0.144 -0.144)">
       <defs>
        <path id="Roboto-Regular-32" d="M 3319 0 
L 369 0 
L 369 422 
L 1859 2078 
Q 2259 2525 2401 2787 
Q 2544 3050 2544 3325 
Q 2544 3666 2345 3898 
Q 2147 4131 1819 4131 
Q 1347 4131 1123 3889 
Q 900 3647 900 3209 
L 309 3209 
L 303 3228 
Q 288 3816 694 4216 
Q 1100 4616 1819 4616 
Q 2431 4616 2795 4258 
Q 3159 3900 3159 3347 
Q 3159 2975 2939 2601 
Q 2719 2228 2322 1800 
L 1125 497 
L 1131 481 
L 3319 481 
L 3319 0 
z
" transform="scale(0.015625)"/>
        <path id="Roboto-Regular-30" d="M 3250 1734 
Q 3250 863 2864 398 
Q 2478 -66 1806 -66 
Q 1134 -66 743 400 
Q 353 866 353 1734 
L 353 2813 
Q 353 3681 742 4148 
Q 1131 4616 1800 4616 
Q 2472 4616 2861 4148 
Q 3250 3681 3250 2813 
L 3250 1734 
z
M 2634 2944 
Q 2634 3534 2420 3832 
Q 2206 4131 1800 4131 
Q 1394 4131 1181 3832 
Q 969 3534 969 2944 
L 969 1609 
Q 969 1019 1184 717 
Q 1400 416 1806 416 
Q 2213 416 2423 716 
Q 2634 1016 2634 1609 
L 2634 2944 
z
" transform="scale(0.015625)"/>
        <path id="Roboto-Regular-34" d="M 2828 1531 
L 3456 1531 
L 3456 1050 
L 2828 1050 
L 2828 0 
L 2216 0 
L 2216 1050 
L 172 1050 
L 172 1397 
L 2178 4550 
L 2828 4550 
L 2828 1531 
z
M 828 1531 
L 2216 1531 
L 2216 3666 
L 2197 3669 
L 2138 3513 
L 828 1531 
z
" transform="scale(0.015625)"/>
       </defs>
       <use xlink:href="#Roboto-Regular-32"/>
       <use xlink:href="#Roboto-Regular-30" x="56.298828"/>
       <use xlink:href="#Roboto-Regular-30" x="112.646484"/>
       <use xlink:href="#Roboto-Regular-34" x="168.994141"/>
      </g>
     </g>
    </g>
    <g id="xtick_3">
     <g id="line2d_7">
      <path d="M 223.56025 288.322875 
L 223.56025 8.386875 
" clip-path="url(#pa3b52d41b4)" style="fill: none; stroke-dasharray: 1,3; stroke-dashoffset: 0; stroke: #000000; stroke-width: 0.5"/>
     </g>
     <g id="line2d_8">
      <g>
       <use xlink:href="#m8fe4108dd7" x="223.56025" y="288.322875" style="stroke: #000000; stroke-width: 0.5"/>
      </g>
     </g>
     <g id="line2d_9">
      <g>
       <use xlink:href="#mbba1341e12" x="223.56025" y="8.386875" style="stroke: #000000; stroke-width: 0.5"/>
      </g>
     </g>
     <g id="text_3">
      <!-- 2009 -->
      <g transform="translate(207.34 303.291625) scale(0.144 -0.144)">
       <use xlink:href="#Roboto-Regular-32"/>
       <use xlink:href="#Roboto-Regular-30" x="56.298828"/>
       <use xlink:href="#Roboto-Regular-30" x="112.646484"/>
       <use xlink:href="#Roboto-Regular-39" x="168.994141"/>
      </g>
     </g>
    </g>
    <g id="xtick_4">
     <g id="line2d_10">
      <path d="M 302.28025 288.322875 
L 302.28025 8.386875 
" clip-path="url(#pa3b52d41b4)" style="fill: none; stroke-dasharray: 1,3; stroke-dashoffset: 0; stroke: #000000; stroke-width: 0.5"/>
     </g>
     <g id="line2d_11">
      <g>
       <use xlink:href="#m8fe4108dd7" x="302.28025" y="288.322875" style="stroke: #000000; stroke-width: 0.5"/>
      </g>
     </g>
     <g id="line2d_12">
      <g>
       <use xlink:href="#mbba1341e12" x="302.28025" y="8.386875" style="stroke: #000000; stroke-width: 0.5"/>
      </g>
     </g>
     <g id="text_4">
      <!-- 2014 -->
      <g transform="translate(286.063375 303.291625) scale(0.144 -0.144)">
       <use xlink:href="#Roboto-Regular-32"/>
       <use xlink:href="#Roboto-Regular-30" x="56.298828"/>
       <use xlink:href="#Roboto-Regular-31" x="112.646484"/>
       <use xlink:href="#Roboto-Regular-34" x="168.945312"/>
      </g>
     </g>
    </g>
    <g id="xtick_5">
     <g id="line2d_13">
      <path d="M 381.00025 288.322875 
L 381.00025 8.386875 
" clip-path="url(#pa3b52d41b4)" style="fill: none; stroke-dasharray: 1,3; stroke-dashoffset: 0; stroke: #000000; stroke-width: 0.5"/>
     </g>
     <g id="line2d_14">
      <g>
       <use xlink:href="#m8fe4108dd7" x="381.00025" y="288.322875" style="stroke: #000000; stroke-width: 0.5"/>
      </g>
     </g>
     <g id="line2d_15">
      <g>
       <use xlink:href="#mbba1341e12" x="381.00025" y="8.386875" style="stroke: #000000; stroke-width: 0.5"/>
      </g>
     </g>
     <g id="text_5">
      <!-- 2019 -->
      <g transform="translate(364.783375 303.291625) scale(0.144 -0.144)">
       <use xlink:href="#Roboto-Regular-32"/>
       <use xlink:href="#Roboto-Regular-30" x="56.298828"/>
       <use xlink:href="#Roboto-Regular-31" x="112.646484"/>
       <use xlink:href="#Roboto-Regular-39" x="168.945312"/>
      </g>
     </g>
    </g>
    <g id="xtick_6">
     <g id="line2d_16">
      <path d="M 459.72025 288.322875 
L 459.72025 8.386875 
" clip-path="url(#pa3b52d41b4)" style="fill: none; stroke-dasharray: 1,3; stroke-dashoffset: 0; stroke: #000000; stroke-width: 0.5"/>
     </g>
     <g id="line2d_17">
      <g>
       <use xlink:href="#m8fe4108dd7" x="459.72025" y="288.322875" style="stroke: #000000; stroke-width: 0.5"/>
      </g>
     </g>
     <g id="line2d_18">
      <g>
       <use xlink:href="#mbba1341e12" x="459.72025" y="8.386875" style="stroke: #000000; stroke-width: 0.5"/>
      </g>
     </g>
     <g id="text_6">
      <!-- 2024 -->
      <g transform="translate(443.503375 303.291625) scale(0.144 -0.144)">
       <use xlink:href="#Roboto-Regular-32"/>
       <use xlink:href="#Roboto-Regular-30" x="56.298828"/>
       <use xlink:href="#Roboto-Regular-32" x="112.646484"/>
       <use xlink:href="#Roboto-Regular-34" x="168.945312"/>
      </g>
     </g>
    </g>
    <g id="text_7">
     <!-- Year -->
     <g transform="translate(246.6665 323.404125) scale(0.16 -0.16)">
      <defs>
       <path id="Roboto-Regular-59" d="M 1953 2238 
L 3141 4550 
L 3844 4550 
L 2247 1600 
L 2247 0 
L 1634 0 
L 1634 1641 
L 63 4550 
L 766 4550 
L 1953 2238 
z
" transform="scale(0.015625)"/>
       <path id="Roboto-Regular-65" d="M 1850 -66 
Q 1144 -66 726 404 
Q 309 875 309 1625 
L 309 1763 
Q 309 2484 739 2964 
Q 1169 3444 1756 3444 
Q 2441 3444 2791 3031 
Q 3141 2619 3141 1931 
L 3141 1547 
L 947 1547 
L 938 1531 
Q 947 1044 1184 730 
Q 1422 416 1850 416 
Q 2163 416 2398 505 
Q 2634 594 2806 750 
L 3047 350 
Q 2866 172 2569 53 
Q 2272 -66 1850 -66 
z
M 1756 2959 
Q 1447 2959 1228 2698 
Q 1009 2438 959 2044 
L 966 2028 
L 2525 2028 
L 2525 2109 
Q 2525 2472 2331 2715 
Q 2138 2959 1756 2959 
z
" transform="scale(0.015625)"/>
       <path id="Roboto-Regular-61" d="M 2525 0 
Q 2494 153 2476 270 
Q 2459 388 2456 506 
Q 2284 263 2007 98 
Q 1731 -66 1413 -66 
Q 884 -66 607 204 
Q 331 475 331 950 
Q 331 1434 723 1707 
Q 1116 1981 1788 1981 
L 2456 1981 
L 2456 2316 
Q 2456 2613 2275 2786 
Q 2094 2959 1763 2959 
Q 1466 2959 1280 2807 
Q 1094 2656 1094 2444 
L 506 2444 
L 500 2463 
Q 481 2831 848 3137 
Q 1216 3444 1797 3444 
Q 2372 3444 2722 3151 
Q 3072 2859 3072 2309 
L 3072 681 
Q 3072 500 3090 331 
Q 3109 163 3159 0 
L 2525 0 
z
M 1503 450 
Q 1838 450 2106 622 
Q 2375 794 2456 1016 
L 2456 1566 
L 1766 1566 
Q 1394 1566 1170 1378 
Q 947 1191 947 938 
Q 947 713 1087 581 
Q 1228 450 1503 450 
z
" transform="scale(0.015625)"/>
       <path id="Roboto-Regular-72" d="M 2047 2838 
L 1731 2856 
Q 1488 2856 1320 2740 
Q 1153 2625 1063 2416 
L 1063 0 
L 447 0 
L 447 3381 
L 997 3381 
L 1056 2888 
Q 1200 3150 1411 3297 
Q 1622 3444 1897 3444 
Q 1966 3444 2028 3433 
Q 2091 3422 2131 3409 
L 2047 2838 
z
" transform="scale(0.015625)"/>
      </defs>
      <use xlink:href="#Roboto-Regular-59"/>
      <use xlink:href="#Roboto-Regular-65" x="61.035156"/>
      <use xlink:href="#Roboto-Regular-61" x="113.916016"/>
      <use xlink:href="#Roboto-Regular-72" x="168.896484"/>
     </g>
    </g>
   </g>
   <g id="matplotlib.axis_2">
    <g id="ytick_1">
     <g id="line2d_19">
      <path d="M 50.37625 288.322875 
L 475.46425 288.322875 
" clip-path="url(#pa3b52d41b4)" style="fill: none; stroke-dasharray: 1,3; stroke-dashoffset: 0; stroke: #000000; stroke-width: 0.5"/>
     </g>
     <g id="line2d_20">
      <defs>
       <path id="m9e9b6c3a96" d="M 0 0 
L 4 0 
" style="stroke: #000000; stroke-width: 0.5"/>
      </defs>
      <g>
       <use xlink:href="#m9e9b6c3a96" x="50.37625" y="288.322875" style="stroke: #000000; stroke-width: 0.5"/>
      </g>
     </g>
     <g id="line2d_21">
      <defs>
       <path id="mfdaeff5308" d="M 0 0 
L -4 0 
" style="stroke: #000000; stroke-width: 0.5"/>
      </defs>
      <g>
       <use xlink:href="#mfdaeff5308" x="475.46425" y="288.322875" style="stroke: #000000; stroke-width: 0.5"/>
      </g>
     </g>
     <g id="text_8">
      <!-- 0 -->
      <g transform="translate(38.26275 292.34475) scale(0.144 -0.144)">
       <use xlink:href="#Roboto-Regular-30"/>
      </g>
     </g>
    </g>
    <g id="ytick_2">
     <g id="line2d_22">
      <path d="M 50.37625 248.332018 
L 475.46425 248.332018 
" clip-path="url(#pa3b52d41b4)" style="fill: none; stroke-dasharray: 1,3; stroke-dashoffset: 0; stroke: #000000; stroke-width: 0.5"/>
     </g>
     <g id="line2d_23">
      <g>
       <use xlink:href="#m9e9b6c3a96" x="50.37625" y="248.332018" style="stroke: #000000; stroke-width: 0.5"/>
      </g>
     </g>
     <g id="line2d_24">
      <g>
       <use xlink:href="#mfdaeff5308" x="475.46425" y="248.332018" style="stroke: #000000; stroke-width: 0.5"/>
      </g>
     </g>
     <g id="text_9">
      <!-- 100 -->
      <g transform="translate(22.0425 252.353893) scale(0.144 -0.144)">
       <use xlink:href="#Roboto-Regular-31"/>
       <use xlink:href="#Roboto-Regular-30" x="56.298828"/>
       <use xlink:href="#Roboto-Regular-30" x="112.646484"/>
      </g>
     </g>
    </g>
    <g id="ytick_3">
     <g id="line2d_25">
      <path d="M 50.37625 208.341161 
L 475.46425 208.341161 
" clip-path="url(#pa3b52d41b4)" style="fill: none; stroke-dasharray: 1,3; stroke-dashoffset: 0; stroke: #000000; stroke-width: 0.5"/>
     </g>
     <g id="line2d_26">
      <g>
       <use xlink:href="#m9e9b6c3a96" x="50.37625" y="208.341161" style="stroke: #000000; stroke-width: 0.5"/>
      </g>
     </g>
     <g id="line2d_27">
      <g>
       <use xlink:href="#mfdaeff5308" x="475.46425" y="208.341161" style="stroke: #000000; stroke-width: 0.5"/>
      </g>
     </g>
     <g id="text_10">
      <!-- 200 -->
      <g transform="translate(22.0425 212.363036) scale(0.144 -0.144)">
       <use xlink:href="#Roboto-Regular-32"/>
       <use xlink:href="#Roboto-Regular-30" x="56.298828"/>
       <use xlink:href="#Roboto-Regular-30" x="112.646484"/>
      </g>
     </g>
    </g>
    <g id="ytick_4">
     <g id="line2d_28">
      <path d="M 50.37625 168.350304 
L 475.46425 168.350304 
" clip-path="url(#pa3b52d41b4)" style="fill: none; stroke-dasharray: 1,3; stroke-dashoffset: 0; stroke: #000000; stroke-width: 0.5"/>
     </g>
     <g id="line2d_29">
      <g>
       <use xlink:href="#m9e9b6c3a96" x="50.37625" y="168.350304" style="stroke: #000000; stroke-width: 0.5"/>
      </g>
     </g>
     <g id="line2d_30">
      <g>
       <use xlink:href="#mfdaeff5308" x="475.46425" y="168.350304" style="stroke: #000000; stroke-width: 0.5"/>
      </g>
     </g>
     <g id="text_11">
      <!-- 300 -->
      <g transform="translate(22.0425 172.372179) scale(0.144 -0.144)">
       <defs>
        <path id="Roboto-Regular-33" d="M 1213 2559 
L 1750 2559 
Q 2159 2559 2329 2764 
Q 2500 2969 2500 3334 
Q 2500 3725 2306 3928 
Q 2113 4131 1734 4131 
Q 1375 4131 1158 3920 
Q 941 3709 941 3359 
L 350 3359 
L 344 3378 
Q 328 3894 717 4255 
Q 1106 4616 1734 4616 
Q 2366 4616 2741 4280 
Q 3116 3944 3116 3322 
Q 3116 3041 2945 2761 
Q 2775 2481 2434 2334 
Q 2844 2200 3014 1912 
Q 3184 1625 3184 1269 
Q 3184 647 2776 290 
Q 2369 -66 1734 -66 
Q 1113 -66 705 270 
Q 297 606 313 1181 
L 322 1200 
L 909 1200 
Q 909 841 1129 628 
Q 1350 416 1734 416 
Q 2125 416 2347 628 
Q 2569 841 2569 1256 
Q 2569 1678 2372 1878 
Q 2175 2078 1750 2078 
L 1213 2078 
L 1213 2559 
z
" transform="scale(0.015625)"/>
       </defs>
       <use xlink:href="#Roboto-Regular-33"/>
       <use xlink:href="#Roboto-Regular-30" x="56.298828"/>
       <use xlink:href="#Roboto-Regular-30" x="112.646484"/>
      </g>
     </g>
    </g>
    <g id="ytick_5">
     <g id="line2d_31">
      <path d="M 50.37625 128.359446 
L 475.46425 128.359446 
" clip-path="url(#pa3b52d41b4)" style="fill: none; stroke-dasharray: 1,3; stroke-dashoffset: 0; stroke: #000000; stroke-width: 0.5"/>
     </g>
     <g id="line2d_32">
      <g>
       <use xlink:href="#m9e9b6c3a96" x="50.37625" y="128.359446" style="stroke: #000000; stroke-width: 0.5"/>
      </g>
     </g>
     <g id="line2d_33">
      <g>
       <use xlink:href="#mfdaeff5308" x="475.46425" y="128.359446" style="stroke: #000000; stroke-width: 0.5"/>
      </g>
     </g>
     <g id="text_12">
      <!-- 400 -->
      <g transform="translate(22.0425 132.381321) scale(0.144 -0.144)">
       <use xlink:href="#Roboto-Regular-34"/>
       <use xlink:href="#Roboto-Regular-30" x="56.298828"/>
       <use xlink:href="#Roboto-Regular-30" x="112.646484"/>
      </g>
     </g>
    </g>
    <g id="ytick_6">
     <g id="line2d_34">
      <path d="M 50.37625 88.368589 
L 475.46425 88.368589 
" clip-path="url(#pa3b52d41b4)" style="fill: none; stroke-dasharray: 1,3; stroke-dashoffset: 0; stroke: #000000; stroke-width: 0.5"/>
     </g>
     <g id="line2d_35">
      <g>
       <use xlink:href="#m9e9b6c3a96" x="50.37625" y="88.368589" style="stroke: #000000; stroke-width: 0.5"/>
      </g>
     </g>
     <g id="line2d_36">
      <g>
       <use xlink:href="#mfdaeff5308" x="475.46425" y="88.368589" style="stroke: #000000; stroke-width: 0.5"/>
      </g>
     </g>
     <g id="text_13">
      <!-- 500 -->
      <g transform="translate(22.0425 92.390464) scale(0.144 -0.144)">
       <defs>
        <path id="Roboto-Regular-35" d="M 547 2053 
L 809 4550 
L 3088 4550 
L 3088 4003 
L 1331 4003 
L 1181 2725 
Q 1325 2831 1501 2901 
Q 1678 2972 1909 2978 
Q 2538 2984 2898 2568 
Q 3259 2153 3259 1450 
Q 3259 766 2892 350 
Q 2525 -66 1822 -66 
Q 1244 -66 859 250 
Q 475 566 491 1178 
L 497 1197 
L 1053 1197 
Q 1053 825 1267 620 
Q 1481 416 1822 416 
Q 2213 416 2428 691 
Q 2644 966 2644 1444 
Q 2644 1881 2425 2162 
Q 2206 2444 1822 2444 
Q 1459 2444 1296 2334 
Q 1134 2225 1059 2000 
L 547 2053 
z
" transform="scale(0.015625)"/>
       </defs>
       <use xlink:href="#Roboto-Regular-35"/>
       <use xlink:href="#Roboto-Regular-30" x="56.298828"/>
       <use xlink:href="#Roboto-Regular-30" x="112.646484"/>
      </g>
     </g>
    </g>
    <g id="ytick_7">
     <g id="line2d_37">
      <path d="M 50.37625 48.377732 
L 475.46425 48.377732 
" clip-path="url(#pa3b52d41b4)" style="fill: none; stroke-dasharray: 1,3; stroke-dashoffset: 0; stroke: #000000; stroke-width: 0.5"/>
     </g>
     <g id="line2d_38">
      <g>
       <use xlink:href="#m9e9b6c3a96" x="50.37625" y="48.377732" style="stroke: #000000; stroke-width: 0.5"/>
      </g>
     </g>
     <g id="line2d_39">
      <g>
       <use xlink:href="#mfdaeff5308" x="475.46425" y="48.377732" style="stroke: #000000; stroke-width: 0.5"/>
      </g>
     </g>
     <g id="text_14">
      <!-- 600 -->
      <g transform="translate(22.0425 52.399607) scale(0.144 -0.144)">
       <defs>
        <path id="Roboto-Regular-36" d="M 2109 4616 
Q 2344 4616 2573 4562 
Q 2803 4509 2953 4428 
L 2822 3956 
Q 2669 4034 2501 4082 
Q 2334 4131 2109 4131 
Q 1622 4131 1323 3740 
Q 1025 3350 1025 2722 
L 1025 2650 
Q 1225 2825 1483 2923 
Q 1741 3022 2038 3022 
Q 2647 3022 3009 2600 
Q 3372 2178 3372 1531 
Q 3372 825 2986 379 
Q 2600 -66 1956 -66 
Q 1288 -66 850 418 
Q 413 903 413 1784 
L 413 2653 
Q 413 3528 900 4072 
Q 1388 4616 2109 4616 
z
M 1900 2563 
Q 1584 2563 1362 2434 
Q 1141 2306 1025 2094 
L 1025 1725 
Q 1025 1097 1290 756 
Q 1556 416 1956 416 
Q 2334 416 2545 736 
Q 2756 1056 2756 1531 
Q 2756 1981 2529 2272 
Q 2303 2563 1900 2563 
z
" transform="scale(0.015625)"/>
       </defs>
       <use xlink:href="#Roboto-Regular-36"/>
       <use xlink:href="#Roboto-Regular-30" x="56.298828"/>
       <use xlink:href="#Roboto-Regular-30" x="112.646484"/>
      </g>
     </g>
    </g>
    <g id="ytick_8">
     <g id="line2d_40">
      <path d="M 50.37625 8.386875 
L 475.46425 8.386875 
" clip-path="url(#pa3b52d41b4)" style="fill: none; stroke-dasharray: 1,3; stroke-dashoffset: 0; stroke: #000000; stroke-width: 0.5"/>
     </g>
     <g id="line2d_41">
      <g>
       <use xlink:href="#m9e9b6c3a96" x="50.37625" y="8.386875" style="stroke: #000000; stroke-width: 0.5"/>
      </g>
     </g>
     <g id="line2d_42">
      <g>
       <use xlink:href="#mfdaeff5308" x="475.46425" y="8.386875" style="stroke: #000000; stroke-width: 0.5"/>
      </g>
     </g>
     <g id="text_15">
      <!-- 700 -->
      <g transform="translate(22.0425 12.40875) scale(0.144 -0.144)">
       <defs>
        <path id="Roboto-Regular-37" d="M 3319 4066 
Q 2494 3084 2205 2326 
Q 1916 1569 1788 491 
L 1738 0 
L 1122 0 
L 1172 491 
Q 1303 1566 1681 2412 
Q 2059 3259 2716 4066 
L 241 4066 
L 241 4550 
L 3319 4550 
L 3319 4066 
z
" transform="scale(0.015625)"/>
       </defs>
       <use xlink:href="#Roboto-Regular-37"/>
       <use xlink:href="#Roboto-Regular-30" x="56.298828"/>
       <use xlink:href="#Roboto-Regular-30" x="112.646484"/>
      </g>
     </g>
    </g>
    <g id="text_16">
     <!-- Number of papers -->
     <g transform="translate(13.7925 213.058625) rotate(-90) scale(0.16 -0.16)">
      <defs>
       <path id="Roboto-Regular-4e" d="M 4003 0 
L 3388 0 
L 1197 3519 
L 1178 3513 
L 1178 0 
L 563 0 
L 563 4550 
L 1178 4550 
L 3369 1038 
L 3388 1044 
L 3388 4550 
L 4003 4550 
L 4003 0 
z
" transform="scale(0.015625)"/>
       <path id="Roboto-Regular-75" d="M 2594 500 
Q 2434 228 2184 81 
Q 1934 -66 1606 -66 
Q 1053 -66 743 287 
Q 434 641 434 1388 
L 434 3381 
L 1050 3381 
L 1050 1381 
Q 1050 841 1209 637 
Q 1369 434 1706 434 
Q 2034 434 2248 567 
Q 2463 700 2572 944 
L 2572 3381 
L 3188 3381 
L 3188 0 
L 2634 0 
L 2594 500 
z
" transform="scale(0.015625)"/>
       <path id="Roboto-Regular-6d" d="M 997 3381 
L 1041 2938 
Q 1206 3178 1461 3311 
Q 1716 3444 2053 3444 
Q 2391 3444 2633 3287 
Q 2875 3131 2997 2819 
Q 3156 3106 3418 3275 
Q 3681 3444 4031 3444 
Q 4547 3444 4847 3089 
Q 5147 2734 5147 2022 
L 5147 0 
L 4531 0 
L 4531 2028 
Q 4531 2528 4359 2736 
Q 4188 2944 3847 2944 
Q 3531 2944 3336 2725 
Q 3141 2506 3106 2172 
L 3106 2147 
L 3106 0 
L 2488 0 
L 2488 2028 
Q 2488 2503 2311 2723 
Q 2134 2944 1803 2944 
Q 1522 2944 1340 2828 
Q 1159 2713 1063 2503 
L 1063 0 
L 447 0 
L 447 3381 
L 997 3381 
z
" transform="scale(0.015625)"/>
       <path id="Roboto-Regular-62" d="M 3334 1563 
Q 3334 831 2982 382 
Q 2631 -66 2016 -66 
Q 1681 -66 1434 64 
Q 1188 194 1025 447 
L 950 0 
L 447 0 
L 447 4875 
L 1063 4875 
L 1063 2981 
Q 1222 3206 1458 3325 
Q 1694 3444 2009 3444 
Q 2634 3444 2984 2944 
Q 3334 2444 3334 1628 
L 3334 1563 
z
M 2719 1628 
Q 2719 2209 2505 2576 
Q 2291 2944 1853 2944 
Q 1569 2944 1373 2805 
Q 1178 2666 1063 2431 
L 1063 966 
Q 1181 716 1373 575 
Q 1566 434 1859 434 
Q 2294 434 2506 743 
Q 2719 1053 2719 1563 
L 2719 1628 
z
" transform="scale(0.015625)"/>
       <path id="Roboto-Regular-20" transform="scale(0.015625)"/>
       <path id="Roboto-Regular-6f" d="M 303 1722 
Q 303 2472 709 2958 
Q 1116 3444 1813 3444 
Q 2516 3444 2923 2959 
Q 3331 2475 3331 1722 
L 3331 1653 
Q 3331 897 2925 415 
Q 2519 -66 1819 -66 
Q 1119 -66 711 417 
Q 303 900 303 1653 
L 303 1722 
z
M 919 1653 
Q 919 1116 1145 766 
Q 1372 416 1819 416 
Q 2259 416 2487 766 
Q 2716 1116 2716 1653 
L 2716 1722 
Q 2716 2253 2486 2606 
Q 2256 2959 1813 2959 
Q 1372 2959 1145 2606 
Q 919 2253 919 1722 
L 919 1653 
z
" transform="scale(0.015625)"/>
       <path id="Roboto-Regular-66" d="M 703 0 
L 703 2925 
L 175 2925 
L 175 3381 
L 703 3381 
L 703 3809 
Q 703 4350 986 4645 
Q 1269 4941 1775 4941 
Q 1881 4941 1989 4923 
Q 2097 4906 2228 4875 
L 2153 4406 
Q 2097 4419 2017 4428 
Q 1938 4438 1850 4438 
Q 1581 4438 1450 4277 
Q 1319 4116 1319 3809 
L 1319 3381 
L 2022 3381 
L 2022 2925 
L 1319 2925 
L 1319 0 
L 703 0 
z
" transform="scale(0.015625)"/>
       <path id="Roboto-Regular-70" d="M 3328 1563 
Q 3328 831 2978 382 
Q 2628 -66 2013 -66 
Q 1700 -66 1464 39 
Q 1228 144 1063 353 
L 1063 -1300 
L 447 -1300 
L 447 3381 
L 919 3381 
L 1016 2944 
Q 1181 3188 1428 3316 
Q 1675 3444 2003 3444 
Q 2631 3444 2979 2945 
Q 3328 2447 3328 1628 
L 3328 1563 
z
M 2713 1628 
Q 2713 2203 2486 2573 
Q 2259 2944 1819 2944 
Q 1553 2944 1365 2823 
Q 1178 2703 1063 2494 
L 1063 859 
Q 1178 650 1365 533 
Q 1553 416 1825 416 
Q 2263 416 2488 736 
Q 2713 1056 2713 1563 
L 2713 1628 
z
" transform="scale(0.015625)"/>
       <path id="Roboto-Regular-73" d="M 2413 897 
Q 2413 1100 2258 1231 
Q 2103 1363 1672 1459 
Q 1056 1594 745 1823 
Q 434 2053 434 2450 
Q 434 2863 784 3153 
Q 1134 3444 1697 3444 
Q 2288 3444 2636 3141 
Q 2984 2838 2969 2403 
L 2963 2384 
L 2375 2384 
Q 2375 2606 2189 2782 
Q 2003 2959 1697 2959 
Q 1369 2959 1209 2815 
Q 1050 2672 1050 2469 
Q 1050 2269 1190 2153 
Q 1331 2038 1763 1947 
Q 2403 1809 2715 1573 
Q 3028 1338 3028 941 
Q 3028 491 2664 212 
Q 2300 -66 1713 -66 
Q 1066 -66 694 262 
Q 322 591 341 1028 
L 347 1047 
L 934 1047 
Q 950 719 1178 567 
Q 1406 416 1713 416 
Q 2041 416 2227 548 
Q 2413 681 2413 897 
z
" transform="scale(0.015625)"/>
      </defs>
      <use xlink:href="#Roboto-Regular-4e"/>
      <use xlink:href="#Roboto-Regular-75" x="71.337891"/>
      <use xlink:href="#Roboto-Regular-6d" x="128.173828"/>
      <use xlink:href="#Roboto-Regular-62" x="215.576172"/>
      <use xlink:href="#Roboto-Regular-65" x="272.412109"/>
      <use xlink:href="#Roboto-Regular-72" x="325.292969"/>
      <use xlink:href="#Roboto-Regular-20" x="359.570312"/>
      <use xlink:href="#Roboto-Regular-6f" x="384.423828"/>
      <use xlink:href="#Roboto-Regular-66" x="441.259766"/>
      <use xlink:href="#Roboto-Regular-20" x="475.78125"/>
      <use xlink:href="#Roboto-Regular-70" x="500.634766"/>
      <use xlink:href="#Roboto-Regular-61" x="557.470703"/>
      <use xlink:href="#Roboto-Regular-70" x="612.451172"/>
      <use xlink:href="#Roboto-Regular-65" x="669.287109"/>
      <use xlink:href="#Roboto-Regular-72" x="722.167969"/>
      <use xlink:href="#Roboto-Regular-73" x="756.445312"/>
     </g>
    </g>
   </g>
   <g id="patch_3">
    <path d="M 50.37625 288.322875 
L 50.37625 8.386875 
" style="fill: none; stroke: #000000; stroke-linejoin: miter; stroke-linecap: square"/>
   </g>
   <g id="patch_4">
    <path d="M 475.46425 288.322875 
L 475.46425 8.386875 
" style="fill: none; stroke: #000000; stroke-linejoin: miter; stroke-linecap: square"/>
   </g>
   <g id="patch_5">
    <path d="M 50.37625 288.322875 
L 475.46425 288.322875 
" style="fill: none; stroke: #000000; stroke-linejoin: miter; stroke-linecap: square"/>
   </g>
   <g id="patch_6">
    <path d="M 50.37625 8.386875 
L 475.46425 8.386875 
" style="fill: none; stroke: #000000; stroke-linejoin: miter; stroke-linecap: square"/>
   </g>
   <g id="line2d_43">
    <path d="M 66.12025 284.323789 
L 81.86425 286.323332 
L 97.60825 283.523972 
L 113.35225 280.324704 
L 129.09625 283.124064 
L 144.84025 273.926166 
L 160.58425 278.325161 
L 176.32825 279.124978 
L 192.07225 273.126349 
L 207.81625 270.726898 
L 223.56025 268.727355 
L 239.30425 258.329732 
L 255.04825 257.130006 
L 270.79225 244.732841 
L 286.53625 230.336132 
L 302.28025 222.337961 
L 318.02425 199.143264 
L 333.76825 183.946738 
L 349.51225 168.350304 
L 365.25625 154.353504 
L 381.00025 139.956795 
L 396.74425 100.365846 
L 412.48825 84.369504 
L 428.23225 47.977824 
L 443.97625 76.371332 
L 459.72025 88.368589 
" style="fill: none; stroke: #3679e0; stroke-width: 2; stroke-linecap: square"/>
    <defs>
     <path id="m4e3f4d5f5b" d="M 0 3.5 
C 0.928211 3.5 1.81853 3.131218 2.474874 2.474874 
C 3.131218 1.81853 3.5 0.928211 3.5 0 
C 3.5 -0.928211 3.131218 -1.81853 2.474874 -2.474874 
C 1.81853 -3.131218 0.928211 -3.5 0 -3.5 
C -0.928211 -3.5 -1.81853 -3.131218 -2.474874 -2.474874 
C -3.131218 -1.81853 -3.5 -0.928211 -3.5 0 
C -3.5 0.928211 -3.131218 1.81853 -2.474874 2.474874 
C -1.81853 3.131218 -0.928211 3.5 0 3.5 
z
" style="stroke: #3679e0; stroke-width: 2"/>
    </defs>
    <g>
     <use xlink:href="#m4e3f4d5f5b" x="66.12025" y="284.323789" style="fill: #ffffff; stroke: #3679e0; stroke-width: 2"/>
     <use xlink:href="#m4e3f4d5f5b" x="81.86425" y="286.323332" style="fill: #ffffff; stroke: #3679e0; stroke-width: 2"/>
     <use xlink:href="#m4e3f4d5f5b" x="97.60825" y="283.523972" style="fill: #ffffff; stroke: #3679e0; stroke-width: 2"/>
     <use xlink:href="#m4e3f4d5f5b" x="113.35225" y="280.324704" style="fill: #ffffff; stroke: #3679e0; stroke-width: 2"/>
     <use xlink:href="#m4e3f4d5f5b" x="129.09625" y="283.124064" style="fill: #ffffff; stroke: #3679e0; stroke-width: 2"/>
     <use xlink:href="#m4e3f4d5f5b" x="144.84025" y="273.926166" style="fill: #ffffff; stroke: #3679e0; stroke-width: 2"/>
     <use xlink:href="#m4e3f4d5f5b" x="160.58425" y="278.325161" style="fill: #ffffff; stroke: #3679e0; stroke-width: 2"/>
     <use xlink:href="#m4e3f4d5f5b" x="176.32825" y="279.124978" style="fill: #ffffff; stroke: #3679e0; stroke-width: 2"/>
     <use xlink:href="#m4e3f4d5f5b" x="192.07225" y="273.126349" style="fill: #ffffff; stroke: #3679e0; stroke-width: 2"/>
     <use xlink:href="#m4e3f4d5f5b" x="207.81625" y="270.726898" style="fill: #ffffff; stroke: #3679e0; stroke-width: 2"/>
     <use xlink:href="#m4e3f4d5f5b" x="223.56025" y="268.727355" style="fill: #ffffff; stroke: #3679e0; stroke-width: 2"/>
     <use xlink:href="#m4e3f4d5f5b" x="239.30425" y="258.329732" style="fill: #ffffff; stroke: #3679e0; stroke-width: 2"/>
     <use xlink:href="#m4e3f4d5f5b" x="255.04825" y="257.130006" style="fill: #ffffff; stroke: #3679e0; stroke-width: 2"/>
     <use xlink:href="#m4e3f4d5f5b" x="270.79225" y="244.732841" style="fill: #ffffff; stroke: #3679e0; stroke-width: 2"/>
     <use xlink:href="#m4e3f4d5f5b" x="286.53625" y="230.336132" style="fill: #ffffff; stroke: #3679e0; stroke-width: 2"/>
     <use xlink:href="#m4e3f4d5f5b" x="302.28025" y="222.337961" style="fill: #ffffff; stroke: #3679e0; stroke-width: 2"/>
     <use xlink:href="#m4e3f4d5f5b" x="318.02425" y="199.143264" style="fill: #ffffff; stroke: #3679e0; stroke-width: 2"/>
     <use xlink:href="#m4e3f4d5f5b" x="333.76825" y="183.946738" style="fill: #ffffff; stroke: #3679e0; stroke-width: 2"/>
     <use xlink:href="#m4e3f4d5f5b" x="349.51225" y="168.350304" style="fill: #ffffff; stroke: #3679e0; stroke-width: 2"/>
     <use xlink:href="#m4e3f4d5f5b" x="365.25625" y="154.353504" style="fill: #ffffff; stroke: #3679e0; stroke-width: 2"/>
     <use xlink:href="#m4e3f4d5f5b" x="381.00025" y="139.956795" style="fill: #ffffff; stroke: #3679e0; stroke-width: 2"/>
     <use xlink:href="#m4e3f4d5f5b" x="396.74425" y="100.365846" style="fill: #ffffff; stroke: #3679e0; stroke-width: 2"/>
     <use xlink:href="#m4e3f4d5f5b" x="412.48825" y="84.369504" style="fill: #ffffff; stroke: #3679e0; stroke-width: 2"/>
     <use xlink:href="#m4e3f4d5f5b" x="428.23225" y="47.977824" style="fill: #ffffff; stroke: #3679e0; stroke-width: 2"/>
     <use xlink:href="#m4e3f4d5f5b" x="443.97625" y="76.371332" style="fill: #ffffff; stroke: #3679e0; stroke-width: 2"/>
     <use xlink:href="#m4e3f4d5f5b" x="459.72025" y="88.368589" style="fill: #ffffff; stroke: #3679e0; stroke-width: 2"/>
    </g>
   </g>
  </g>
 </g>
 <defs>
  <clipPath id="pa3b52d41b4">
   <rect x="50.37625" y="8.386875" width="425.088" height="279.936"/>
  </clipPath>
 </defs>
</svg>
